<svg width="38" height="38" viewBox="0 0 38 38" fill="none" xmlns="http://www.w3.org/2000/svg">
<path d="M19.1429 0.619141C8.99142 0.619141 0.761902 8.84866 0.761902 19.0001C0.761902 27.62 6.69674 34.8533 14.7028 36.8399V24.6173H10.9126V19.0001H14.7028V16.5797C14.7028 10.3235 17.5342 7.42377 23.6763 7.42377C24.841 7.42377 26.8504 7.65243 27.6724 7.88035V12.9719C27.2386 12.9263 26.4849 12.9035 25.549 12.9035C22.5352 12.9035 21.3706 14.0453 21.3706 17.0135V19.0001H27.3746L26.343 24.6173H21.3706V37.2465C30.4721 36.1473 37.5245 28.3979 37.5245 19.0001C37.5238 8.84866 29.2943 0.619141 19.1429 0.619141Z" fill="#242424"/>
</svg>
