<svg width="36" height="31" viewBox="0 0 36 31" fill="none" xmlns="http://www.w3.org/2000/svg">
<g clip-path="url(#clip0_148_5084)">
<path d="M17.7559 7.96886C16.5271 7.99547 15.6135 8.05666 14.7084 8.18617C14.7083 8.18618 14.7082 8.18619 14.7082 8.1862C14.7081 8.18621 14.708 8.18623 14.7079 8.18624L14.6896 8.18887C14.1486 8.26666 13.8029 8.31637 13.5582 8.37795C13.4708 8.39994 13.4158 8.41916 13.383 8.43257C13.3793 8.46612 13.3761 8.5203 13.3784 8.60261C13.3851 8.8518 13.4325 9.1988 13.5094 9.74798L13.5094 9.74821C13.6796 10.9667 13.5388 12.061 12.9766 12.9656C12.4139 13.8712 11.4965 14.4784 10.3301 14.8563L10.3297 14.8564C9.99888 14.9634 9.66756 15.0708 9.33579 15.1784C7.89917 15.6444 6.45416 16.1131 5.00367 16.556L5.00246 16.5564C4.84376 16.6045 4.79615 16.6438 4.78092 16.6584C4.76961 16.6693 4.73132 16.708 4.68789 16.8536L17.7559 7.96886ZM17.7559 7.96886V7.98536L18.53 7.96049C19.5208 7.92866 21.0103 8.12614 22.5631 8.41415L22.5634 8.4142C22.6655 8.4331 22.7283 8.45379 22.764 8.46881L17.7559 7.96886ZM26.678 30.1429C26.6753 30.1835 26.6749 30.2166 26.6756 30.2431C26.7448 30.2491 26.838 30.2496 26.9657 30.2432C27.492 30.2161 28.023 30.2244 28.5238 30.2322C28.6071 30.2335 28.6895 30.2348 28.771 30.2359C28.7656 30.0558 28.7835 29.8678 28.8472 29.6854C28.9365 29.4294 29.0997 29.2313 29.3087 29.0966C29.4964 28.9756 29.6923 28.9246 29.829 28.8968C29.9361 28.8751 30.0578 28.859 30.1518 28.8465C30.1741 28.8435 30.1948 28.8408 30.2134 28.8382C31.6041 28.6446 32.6093 27.9724 33.175 27.0714C33.7413 26.1694 33.9152 24.9615 33.4928 23.6058L34.2089 23.3827L33.4928 23.6058C33.1841 22.6148 32.8554 21.602 32.525 20.5839C32.1236 19.3469 31.7197 18.1022 31.3461 16.8799C31.2907 16.6989 31.2351 16.6241 31.1966 16.5857C31.1578 16.5471 31.0856 16.4948 30.9135 16.4415C29.0755 15.8733 27.2333 15.2955 25.4025 14.6784L26.678 30.1429ZM26.678 30.1429C26.6945 29.8973 26.6677 29.6009 26.4943 29.337C26.3062 29.0508 26.032 28.9311 25.8171 28.8861C25.6233 28.8455 25.4374 28.8565 25.3351 28.8638C25.2727 28.8682 25.2324 28.8718 25.203 28.8743C25.1638 28.8778 25.1444 28.8794 25.1184 28.8793L25.1181 28.8793C23.1957 28.8689 21.2739 28.8699 19.354 28.871C18.7783 28.8713 18.2028 28.8716 17.6275 28.8716C17.036 28.8716 16.4452 28.8721 15.8548 28.8727C14.234 28.8742 12.6166 28.8757 10.9972 28.8658C10.8749 28.8649 10.7162 28.8646 10.5612 28.8828C10.4068 28.9008 10.1949 28.943 9.99068 29.0673C9.53383 29.3452 9.42091 29.814 9.433 30.234C9.33438 30.233 9.2342 30.2316 9.13278 30.2303C8.65015 30.2237 8.13951 30.2168 7.63527 30.2411C7.63535 30.2411 7.63542 30.2411 7.63549 30.2411L26.678 30.1429ZM7.33889 30.2418C7.33951 30.2217 7.3409 30.1982 7.34345 30.1711L7.34366 30.1688C7.36406 29.9444 7.34755 29.6742 7.20583 29.4226C7.0524 29.1503 6.8166 29.0115 6.61769 28.9452C6.44148 28.8865 6.26863 28.8761 6.17943 28.8713C6.13403 28.8688 6.10164 28.8673 6.07704 28.8662C6.03337 28.8642 6.01427 28.8633 5.99061 28.8599L5.98943 28.8598C4.88514 28.7031 4.05554 28.3067 3.47174 27.7382C2.89022 27.1719 2.50046 26.3843 2.36103 25.3499L2.361 25.3497C2.29455 24.8579 2.38383 24.3557 2.55787 23.787C2.81802 22.9369 3.0827 22.0841 3.3479 21.2297C3.79961 19.7744 4.25284 18.3141 4.68783 16.8538L7.33889 30.2418ZM17.9238 12.8095L17.9237 12.8095C13.9162 12.8354 10.7182 16.1546 10.7457 20.2039C10.7732 24.2422 14.0036 27.5275 18.0051 27.5361C22.045 27.5447 25.3064 24.1922 25.281 20.1152C25.2556 16.0093 22.0161 12.7838 17.9238 12.8095Z" stroke="#B8C0CC" stroke-width="1.5"/>
<path d="M29.8433 3.14654L29.8431 3.14645C26.0942 1.4661 22.1238 0.835005 17.9402 0.750201C15.7199 0.809709 13.487 0.990526 11.307 1.49132C7.6667 2.3279 4.33706 3.61887 1.62532 6.16048L1.62526 6.16054C0.877929 6.86082 0.618586 7.61484 0.807552 8.56189L0.807622 8.56224C1.09171 9.98956 1.40065 11.4104 1.72706 12.8311L29.8433 3.14654ZM29.8433 3.14654C31.5123 3.89407 33.0072 4.90847 34.373 6.14916L34.3736 6.14966M29.8433 3.14654L34.3736 6.14966M34.3736 6.14966C34.7765 6.51497 35.0228 6.87763 35.1471 7.24946C35.2701 7.61702 35.2924 8.04798 35.1608 8.58364L35.1606 8.58455M34.3736 6.14966L35.1606 8.58455M35.1606 8.58455C34.9403 9.48589 34.7679 10.422 34.6001 11.3328C34.5123 11.809 34.4259 12.2783 34.3345 12.7321C34.2055 13.3708 33.9478 13.7086 33.6869 13.869C33.4305 14.0266 33.0308 14.0992 32.4298 13.9135M35.1606 8.58455L32.4298 13.9135M24.6431 10.2948C24.5344 11.5846 24.9822 12.291 26.1789 12.6895L24.6431 10.2948ZM24.6431 10.2948C24.7174 9.40742 24.8107 8.51615 24.9689 7.64028L24.6431 10.2948ZM32.4298 13.9135C30.4193 13.2896 28.4139 12.6425 26.4156 11.9778C25.912 11.8101 25.6762 11.6144 25.5533 11.4223C25.4278 11.226 25.3436 10.914 25.3904 10.3578L25.3904 10.3574C25.464 9.47876 25.555 8.61532 25.7068 7.77451C25.7575 7.49607 25.8133 7.07525 25.6161 6.68233C25.3982 6.24816 24.9883 6.05676 24.6293 5.95453L24.6278 5.9541C20.2294 4.71176 15.8303 4.70163 11.427 5.93425C11.1275 6.01772 10.7215 6.17321 10.4878 6.57372C10.2626 6.95982 10.3137 7.38212 10.365 7.66166C10.492 8.35556 10.5659 9.05359 10.6432 9.78295C10.6665 10.0034 10.6902 10.2267 10.7157 10.4537C10.7599 10.8468 10.689 11.1501 10.5574 11.3705C10.4287 11.5862 10.2096 11.7775 9.85274 11.8982L9.8522 11.8983C7.73828 12.6147 5.61908 13.3065 3.48709 13.9441L3.48665 13.9442C3.00476 14.0886 2.63483 14.0194 2.36993 13.8543C2.09854 13.6852 1.84877 13.3594 1.72708 12.8312L32.4298 13.9135Z" stroke="#B8C0CC" stroke-width="1.5"/>
<path d="M21.0459 15.8618C21.7452 15.9273 22.1816 16.2738 22.2006 16.9976C22.2197 17.7137 21.8348 18.1314 21.124 18.1853C20.4438 18.2373 19.9007 17.706 19.9217 17.0226C19.9445 16.2969 20.3618 15.9446 21.044 15.8618H21.0459Z" fill="#B8C0CC"/>
<path d="M17.9552 25.6468C17.275 25.5487 16.8634 25.1752 16.8939 24.4437C16.9244 23.7161 17.3455 23.3291 18.06 23.3542C18.7784 23.3792 19.1671 23.8104 19.1404 24.5303C19.1138 25.2561 18.6698 25.6006 17.9552 25.6468Z" fill="#B8C0CC"/>
<path d="M14.9865 18.2545C14.3044 18.1814 13.8509 17.8522 13.8261 17.1188C13.8032 16.395 14.2091 15.9831 14.895 15.8984C15.541 15.8194 16.1241 16.3969 16.1126 17.0707C16.0993 17.8041 15.663 18.1467 14.9884 18.2545H14.9865Z" fill="#B8C0CC"/>
<path d="M16.1146 23.3365C16.0669 23.914 15.6801 24.3164 14.9903 24.3683C14.3215 24.4203 13.7937 23.8563 13.8223 23.1633C13.8528 22.4202 14.3101 22.0814 14.9827 22.0468C15.6096 22.0141 16.1126 22.5646 16.1126 23.3346L16.1146 23.3365Z" fill="#B8C0CC"/>
<path d="M20.9811 24.3759C20.3618 24.272 19.9217 23.9274 19.9236 23.1959C19.9236 22.4529 20.3828 22.1006 21.0535 22.0486C21.7204 21.9967 22.2406 22.5799 22.2082 23.2652C22.1777 23.912 21.6652 24.3971 20.9811 24.374V24.3759Z" fill="#B8C0CC"/>
<path d="M13.8166 18.9573C14.3901 19.0689 14.8265 19.4115 14.8112 20.1392C14.796 20.8534 14.4225 21.2499 13.6965 21.2538C13.0086 21.2576 12.4999 20.7186 12.5399 20.0506C12.578 19.425 13.1153 18.9284 13.8166 18.9573Z" fill="#B8C0CC"/>
<path d="M19.1576 15.8176C19.0775 16.4991 18.6736 16.911 17.9762 16.8879C17.2788 16.8648 16.871 16.4452 16.892 15.7098C16.9129 14.9668 17.3779 14.576 18.0505 14.5991C18.7269 14.6203 19.1328 15.0592 19.1595 15.8176H19.1576Z" fill="#B8C0CC"/>
<path d="M22.294 21.2634C21.5832 21.1902 21.1945 20.7995 21.225 20.0737C21.2555 19.348 21.6956 18.9438 22.3873 18.9726C23.079 19.0015 23.5097 19.4597 23.4773 20.1623C23.4449 20.8553 23.0123 21.246 22.294 21.2634Z" fill="#B8C0CC"/>
</g>
<defs>
<clipPath id="clip0_148_5084">
<rect width="36" height="31" fill="white"/>
</clipPath>
</defs>
</svg>
