<svg width="37" height="38" viewBox="0 0 37 38" fill="#fff" xmlns="http://www.w3.org/2000/svg">
<g clip-path="url(#clip0_142_3643)">
<path d="M18.381 3.92915C23.2921 3.92915 23.8737 3.95069 25.8051 4.03685C27.6002 4.11583 28.5695 4.41739 29.2157 4.66869C30.0701 4.99898 30.6876 5.40106 31.3266 6.04009C31.9728 6.68629 32.3677 7.2966 32.698 8.15102C32.9493 8.79723 33.2509 9.77372 33.3298 11.5616C33.416 13.5002 33.4375 14.0818 33.4375 18.9857C33.4375 23.8969 33.416 24.4785 33.3298 26.4099C33.2509 28.2049 32.9493 29.1742 32.698 29.8204C32.3677 30.6749 31.9656 31.2924 31.3266 31.9314C30.6804 32.5776 30.0701 32.9725 29.2157 33.3028C28.5695 33.5541 27.593 33.8556 25.8051 33.9346C23.8665 34.0208 23.2849 34.0423 18.381 34.0423C13.4698 34.0423 12.8882 34.0208 10.9568 33.9346C9.16176 33.8556 8.19245 33.5541 7.54624 33.3028C6.69182 32.9725 6.07433 32.5704 5.43531 31.9314C4.7891 31.2852 4.3942 30.6749 4.06391 29.8204C3.81261 29.1742 3.51105 28.1978 3.43207 26.4099C3.34591 24.4713 3.32437 23.8897 3.32437 18.9857C3.32437 14.0746 3.34591 13.493 3.43207 11.5616C3.51105 9.76654 3.81261 8.79723 4.06391 8.15102C4.3942 7.2966 4.79628 6.67911 5.43531 6.04009C6.08151 5.39388 6.69182 4.99898 7.54624 4.66869C8.19245 4.41739 9.16894 4.11583 10.9568 4.03685C12.8882 3.95069 13.4698 3.92915 18.381 3.92915ZM18.381 0.619141C13.3908 0.619141 12.7661 0.640681 10.806 0.726842C8.85301 0.813002 7.51034 1.12892 6.34717 1.58127C5.13374 2.05515 4.10699 2.67982 3.08743 3.70657C2.06068 4.72613 1.43601 5.75288 0.962128 6.95913C0.509784 8.12948 0.193862 9.46497 0.107701 11.4179C0.0215402 13.3853 0 14.01 0 19.0001C0 23.9902 0.0215402 24.6149 0.107701 26.5751C0.193862 28.528 0.509784 29.8707 0.962128 31.0339C1.43601 32.2473 2.06068 33.2741 3.08743 34.2936C4.10699 35.3132 5.13374 35.945 6.33999 36.4117C7.51034 36.8641 8.84583 37.18 10.7988 37.2662C12.759 37.3523 13.3836 37.3739 18.3738 37.3739C23.3639 37.3739 23.9886 37.3523 25.9487 37.2662C27.9017 37.18 29.2444 36.8641 30.4076 36.4117C31.6138 35.945 32.6406 35.3132 33.6601 34.2936C34.6797 33.2741 35.3115 32.2473 35.7782 31.0411C36.2306 29.8707 36.5465 28.5352 36.6327 26.5822C36.7188 24.6221 36.7404 23.9974 36.7404 19.0073C36.7404 14.0171 36.7188 13.3925 36.6327 11.4323C36.5465 9.47933 36.2306 8.13666 35.7782 6.97349C35.3259 5.75288 34.7012 4.72613 33.6745 3.70657C32.6549 2.687 31.6282 2.05515 30.4219 1.58845C29.2516 1.1361 27.9161 0.820182 25.9631 0.734022C23.9958 0.640681 23.3711 0.619141 18.381 0.619141Z" fill="#242424"/>
<path d="M18.381 9.55811C13.1682 9.55811 8.93918 13.7872 8.93918 18.9999C8.93918 24.2126 13.1682 28.4417 18.381 28.4417C23.5937 28.4417 27.8227 24.2126 27.8227 18.9999C27.8227 13.7872 23.5937 9.55811 18.381 9.55811ZM18.381 25.1245C14.9991 25.1245 12.2564 22.3817 12.2564 18.9999C12.2564 15.6181 14.9991 12.8753 18.381 12.8753C21.7628 12.8753 24.5055 15.6181 24.5055 18.9999C24.5055 22.3817 21.7628 25.1245 18.381 25.1245Z" fill="#242424"/>
<path d="M30.4004 9.18475C30.4004 10.4054 29.4095 11.389 28.1961 11.389C26.9755 11.389 25.9918 10.3982 25.9918 9.18475C25.9918 7.96414 26.9827 6.98047 28.1961 6.98047C29.4095 6.98047 30.4004 7.97132 30.4004 9.18475Z" fill="#242424"/>
</g>
<defs>
<clipPath id="clip0_142_3643">
<rect width="36.7619" height="36.7619" fill="white" transform="translate(0 0.619141)"/>
</clipPath>
</defs>
</svg>
