<svg width="32" height="32" viewBox="0 0 32 32" fill="none" xmlns="http://www.w3.org/2000/svg">
<path fill-rule="evenodd" clip-rule="evenodd" d="M16 5.33317C12.3181 5.33317 9.33333 8.31794 9.33333 11.9998C9.33333 15.717 11.4823 21.1562 16 26.0736C20.5177 21.1562 22.6667 15.717 22.6667 11.9998C22.6667 8.31794 19.6819 5.33317 16 5.33317ZM6.66666 11.9998C6.66666 6.84518 10.8453 2.6665 16 2.6665C21.1547 2.6665 25.3333 6.84518 25.3333 11.9998C25.3333 16.8694 22.4474 23.438 16.9428 28.9426C16.4221 29.4633 15.5779 29.4633 15.0572 28.9426C9.55259 23.438 6.66666 16.8694 6.66666 11.9998Z" fill="#B8C0CC"/>
<path fill-rule="evenodd" clip-rule="evenodd" d="M16 13.3332C16.7364 13.3332 17.3333 12.7362 17.3333 11.9998C17.3333 11.2635 16.7364 10.6665 16 10.6665C15.2636 10.6665 14.6667 11.2635 14.6667 11.9998C14.6667 12.7362 15.2636 13.3332 16 13.3332ZM16 15.9998C18.2091 15.9998 20 14.209 20 11.9998C20 9.7907 18.2091 7.99984 16 7.99984C13.7909 7.99984 12 9.7907 12 11.9998C12 14.209 13.7909 15.9998 16 15.9998Z" fill="#B8C0CC"/>
</svg>
