<svg width="32" height="32" viewBox="0 0 32 32" fill="none" xmlns="http://www.w3.org/2000/svg">
<path fill-rule="evenodd" clip-rule="evenodd" d="M6.66667 5.3335C4.45753 5.3335 2.66667 7.12436 2.66667 9.3335V22.6668C2.66667 24.876 4.45753 26.6668 6.66667 26.6668H25.3333C27.5425 26.6668 29.3333 24.876 29.3333 22.6668V9.3335C29.3333 7.12436 27.5425 5.3335 25.3333 5.3335H6.66667ZM6.43402 8.02039C6.50957 8.0071 6.58731 8.00016 6.66667 8.00016H25.3333C25.4127 8.00016 25.4905 8.0071 25.566 8.02039L16 14.3977L6.43402 8.02039ZM5.33334 10.4915V22.6668C5.33334 23.4032 5.93029 24.0002 6.66667 24.0002H25.3333C26.0697 24.0002 26.6667 23.4032 26.6667 22.6668V10.4916L16.7396 17.1096C16.2918 17.4082 15.7083 17.4082 15.2604 17.1096L5.33334 10.4915Z" fill="#B8C0CC"/>
</svg>
