<svg width="38" height="38" viewBox="0 0 38 38" fill="none" xmlns="http://www.w3.org/2000/svg">
<path d="M0.523804 37.381L3.10786 27.9409C1.51331 25.1776 0.675447 22.0452 0.676978 18.8331C0.681574 8.79101 8.85344 0.619141 18.894 0.619141C23.7665 0.620672 28.3403 2.51851 31.7806 5.96187C35.2194 9.40524 37.1126 13.9821 37.1111 18.85C37.1065 28.8936 28.9346 37.0655 18.894 37.0655C15.8459 37.064 12.8421 36.2996 10.1815 34.8475L0.523804 37.381ZM10.6287 31.5497C13.1959 33.0738 15.6467 33.9867 18.8879 33.9882C27.2329 33.9882 34.0308 27.1965 34.0353 18.8469C34.0384 10.4805 27.2727 3.69795 18.9002 3.69489C10.5491 3.69489 3.75579 10.4866 3.75272 18.8347C3.75119 22.2428 4.74989 24.7947 6.42715 27.4645L4.89694 33.0523L10.6287 31.5497ZM28.0707 23.1802C27.9574 22.9903 27.6541 22.8769 27.1976 22.6487C26.7427 22.4205 24.5048 21.3192 24.0867 21.1675C23.67 21.0159 23.3667 20.9393 23.0619 21.3957C22.7586 21.8507 21.8855 22.8769 21.6205 23.1802C21.3555 23.4835 21.089 23.5218 20.6341 23.2936C20.1792 23.0653 18.7118 22.5859 16.9732 21.0343C15.6207 19.8272 14.7062 18.3368 14.4412 17.8804C14.1763 17.4255 14.4137 17.1788 14.6404 16.9521C14.8456 16.7484 15.0953 16.4206 15.3235 16.1541C15.5548 15.8906 15.6299 15.7007 15.7831 15.3959C15.9347 15.0926 15.8596 14.8261 15.7448 14.5979C15.6299 14.3712 14.72 12.1302 14.3417 11.2188C13.971 10.3319 13.5957 10.4514 13.3169 10.4376L12.4439 10.4223C12.1406 10.4223 11.6473 10.5357 11.2307 10.9921C10.8141 11.4486 9.63769 12.5484 9.63769 14.7893C9.63769 17.0303 11.269 19.1946 11.4957 19.4979C11.7239 19.8012 14.7047 24.3995 19.2708 26.3709C20.3568 26.8396 21.2054 27.1199 21.8656 27.3297C22.9562 27.6759 23.9488 27.6269 24.733 27.5105C25.6077 27.3803 27.4259 26.4091 27.8057 25.3461C28.1856 24.2816 28.1856 23.3702 28.0707 23.1802Z" fill="#242424"/>
</svg>
